<?xml version="1.0" standalone="no"?>
<!DOCTYPE svg PUBLIC "-//W3C//DTD SVG 20010904//EN"
 "http://www.w3.org/TR/2001/REC-SVG-20010904/DTD/svg10.dtd">
<svg version="1.0" xmlns="http://www.w3.org/2000/svg"
 width="512.000000pt" height="512.000000pt" viewBox="0 0 512.000000 512.000000"
 preserveAspectRatio="xMidYMid meet">
<metadata>
Created by potrace 1.11, written by Peter Selinger 2001-2013
</metadata>
<g transform="translate(0.000000,512.000000) scale(0.100000,-0.100000)"
fill="#000000" stroke="none">
<path d="M0 2560 l0 -2560 2560 0 2560 0 0 2560 0 2560 -2560 0 -2560 0 0
-2560z m1608 2117 c12 -12 25 -38 29 -59 9 -62 40 -97 172 -195 117 -88 125
-93 162 -87 54 9 83 -1 130 -43 45 -41 69 -80 69 -115 0 -18 35 -48 165 -143
90 -66 166 -127 168 -135 2 -8 12 5 24 30 22 50 66 98 101 111 71 27 167 -2
221 -68 67 -81 79 -217 31 -351 -34 -97 -18 -122 79 -122 62 0 180 -90 216
-165 29 -60 32 -81 44 -255 8 -105 15 -149 35 -198 35 -89 105 -218 181 -334
61 -93 105 -192 105 -237 0 -29 -35 -43 -108 -44 -56 -1 -67 2 -83 22 -11 13
-19 38 -19 56 0 19 -4 45 -10 59 -9 25 -14 26 -79 26 l-70 0 -10 38 c-5 20
-17 68 -25 105 -16 69 -44 118 -109 192 l-36 40 5 -85 c8 -160 24 -553 24
-612 0 -44 -4 -58 -14 -58 -12 0 -15 -35 -18 -209 -3 -179 -5 -212 -20 -228
-13 -14 -20 -59 -32 -213 l-15 -195 -35 -30 -36 -30 0 -106 0 -107 36 -27
c141 -107 155 -340 29 -468 -60 -60 -121 -89 -204 -94 -224 -16 -393 216 -309
424 30 75 59 111 121 153 l47 33 0 108 c0 125 2 122 -95 134 -70 8 -182 56
-192 82 -4 9 1 139 11 288 32 500 35 559 46 981 12 453 7 567 -32 692 -23 77
-65 122 -265 290 -152 128 -149 118 -130 341 12 141 12 171 0 210 -8 25 -14
80 -14 122 l-1 76 -141 88 -142 88 -72 1 c-60 1 -76 5 -96 25 -32 29 -38 64
-21 121 16 54 50 89 96 99 39 9 56 5 86 -22z"/>
<path d="M2115 4068 c-27 -41 -28 -44 -16 -102 22 -103 61 -214 87 -245 34
-41 186 -97 318 -116 43 -7 46 -6 46 16 0 12 -7 30 -15 39 -20 22 -38 125 -32
175 l6 40 -177 118 c-98 64 -180 117 -183 117 -4 0 -19 -19 -34 -42z"/>
</g>
</svg>
